<svg xmlns="http://www.w3.org/2000/svg" xmlns:xlink="http://www.w3.org/1999/xlink" viewBox="0 0 18 18">
  <path d="M13.91 10.636v-4.09a4.91 4.91 0 0 0-9.82 0v4.09c0 .596-.158 1.155-.437 1.637h10.694a3.258 3.258 0 0 1-.438-1.637zm3.272 3.273H.818c-1.09 0-1.09-1.636 0-1.636.904 0 1.637-.733 1.637-1.637v-4.09a6.545 6.545 0 0 1 13.09 0v4.09c0 .904.733 1.637 1.637 1.637 1.09 0 1.09 1.636 0 1.636zm-6.059 2.865a2.455 2.455 0 0 1-4.246 0 .818.818 0 0 1 .708-1.229h2.83c.631 0 1.025.684.708 1.23z" fill="currentColor"/>
</svg>
